REM DIRINDEX 1\2,1\4,1\5,1\6,1\7,1\3\8,1\3\9,1\3\10
REM DIRNAME folder01,folder02,folder03,folder04,folder05,folder06,folder07,folder08,folder09,folder10
TITLE ""
FILE "DB4500_5th_5C_20.mp3" MP3
  TRACK 01 AUDIO
    TITLE "8:cjc113_4090"
    INDEX 01 00:00:00
  TRACK 02 AUDIO
    TITLE "0:"
    INDEX 01 00:01:21
  TRACK 03 AUDIO
    TITLE "9:cjc113_4091"
    INDEX 01 00:01:34
  TRACK 04 AUDIO
    TITLE "0:"
    INDEX 01 00:02:63
  TRACK 05 AUDIO
    TITLE "10:cjc113_4092"
    INDEX 01 00:03:06
  TRACK 06 AUDIO
    TITLE "0:"
    INDEX 01 00:07:00
  TRACK 07 AUDIO
    TITLE "8:cjc113_4093"
    INDEX 01 00:07:43
  TRACK 08 AUDIO
    TITLE "0:"
    INDEX 01 00:08:58
  TRACK 09 AUDIO
    TITLE "9:cjc113_4094"
    INDEX 01 00:09:00
  TRACK 10 AUDIO
    TITLE "0:"
    INDEX 01 00:10:04
  TRACK 11 AUDIO
    TITLE "10:cjc113_4095"
    INDEX 01 00:10:21
  TRACK 12 AUDIO
    TITLE "0:"
    INDEX 01 00:13:16
  TRACK 13 AUDIO
    TITLE "10:cjc113_4096"
    INDEX 01 00:13:53
  TRACK 14 AUDIO
    TITLE "0:"
    INDEX 01 00:16:73
  TRACK 15 AUDIO
    TITLE "8:cjc113_4097"
    INDEX 01 00:17:39
  TRACK 16 AUDIO
    TITLE "0:"
    INDEX 01 00:18:50
  TRACK 17 AUDIO
    TITLE "9:cjc113_4098"
    INDEX 01 00:18:66
  TRACK 18 AUDIO
    TITLE "0:"
    INDEX 01 00:19:65
  TRACK 19 AUDIO
    TITLE "10:cjc113_4099"
    INDEX 01 00:20:06
  TRACK 20 AUDIO
    TITLE "0:"
    INDEX 01 00:22:17
  TRACK 21 AUDIO
    TITLE "8:cjc113_4100"
    INDEX 01 00:22:56
  TRACK 22 AUDIO
    TITLE "0:"
    INDEX 01 00:24:10
  TRACK 23 AUDIO
    TITLE "9:cjc113_4101"
    INDEX 01 00:24:29
  TRACK 24 AUDIO
    TITLE "0:"
    INDEX 01 00:25:48
  TRACK 25 AUDIO
    TITLE "10:cjc113_4102"
    INDEX 01 00:25:64
  TRACK 26 AUDIO
    TITLE "0:"
    INDEX 01 00:28:49
  TRACK 27 AUDIO
    TITLE "8:cjc113_4103"
    INDEX 01 00:29:17
  TRACK 28 AUDIO
    TITLE "0:"
    INDEX 01 00:30:24
  TRACK 29 AUDIO
    TITLE "9:cjc113_4104"
    INDEX 01 00:30:32
  TRACK 30 AUDIO
    TITLE "0:"
    INDEX 01 00:31:39
  TRACK 31 AUDIO
    TITLE "10:cjc113_4105"
    INDEX 01 00:31:47
  TRACK 32 AUDIO
    TITLE "0:"
    INDEX 01 00:34:20
  TRACK 33 AUDIO
    TITLE "8:cjc113_4106"
    INDEX 01 00:34:49
  TRACK 34 AUDIO
    TITLE "0:"
    INDEX 01 00:36:09
  TRACK 35 AUDIO
    TITLE "9:cjc113_4107"
    INDEX 01 00:36:17
  TRACK 36 AUDIO
    TITLE "0:"
    INDEX 01 00:37:42
  TRACK 37 AUDIO
    TITLE "10:cjc113_4108"
    INDEX 01 00:37:56
  TRACK 38 AUDIO
    TITLE "0:"
    INDEX 01 00:40:62
  TRACK 39 AUDIO
    TITLE "8:cjc113_4109"
    INDEX 01 00:41:18
  TRACK 40 AUDIO
    TITLE "0:"
    INDEX 01 00:42:18
  TRACK 41 AUDIO
    TITLE "9:cjc113_4110"
    INDEX 01 00:42:23
  TRACK 42 AUDIO
    TITLE "0:"
    INDEX 01 00:43:48
  TRACK 43 AUDIO
    TITLE "10:cjc113_4111"
    INDEX 01 00:43:56
  TRACK 44 AUDIO
    TITLE "0:"
    INDEX 01 00:47:54
  TRACK 45 AUDIO
    TITLE "8:cjc113_4112"
    INDEX 01 00:48:10
  TRACK 46 AUDIO
    TITLE "0:"
    INDEX 01 00:49:43
  TRACK 47 AUDIO
    TITLE "9:cjc113_4113"
    INDEX 01 00:49:49
  TRACK 48 AUDIO
    TITLE "0:"
    INDEX 01 00:51:01
  TRACK 49 AUDIO
    TITLE "10:cjc113_4114"
    INDEX 01 00:51:15
  TRACK 50 AUDIO
    TITLE "0:"
    INDEX 01 00:54:19
  TRACK 51 AUDIO
    TITLE "8:cjc113_4115"
    INDEX 01 00:54:52
  TRACK 52 AUDIO
    TITLE "0:"
    INDEX 01 00:55:57
  TRACK 53 AUDIO
    TITLE "9:cjc113_4116"
    INDEX 01 00:55:69
  TRACK 54 AUDIO
    TITLE "0:"
    INDEX 01 00:57:05
  TRACK 55 AUDIO
    TITLE "10:cjc113_4117"
    INDEX 01 00:57:11
  TRACK 56 AUDIO
    TITLE "0:"
    INDEX 01 01:01:03
  TRACK 57 AUDIO
    TITLE "8:cjc113_4118"
    INDEX 01 01:01:36
  TRACK 58 AUDIO
    TITLE "0:"
    INDEX 01 01:02:44
  TRACK 59 AUDIO
    TITLE "9:cjc113_4119"
    INDEX 01 01:02:54
  TRACK 60 AUDIO
    TITLE "0:"
    INDEX 01 01:04:09
  TRACK 61 AUDIO
    TITLE "10:cjc113_4120"
    INDEX 01 01:04:17
  TRACK 62 AUDIO
    TITLE "0:"
    INDEX 01 01:09:30
  TRACK 63 AUDIO
    TITLE "8:cjc113_4121"
    INDEX 01 01:09:61
  TRACK 64 AUDIO
    TITLE "0:"
    INDEX 01 01:10:65
  TRACK 65 AUDIO
    TITLE "9:cjc113_4122"
    INDEX 01 01:11:00
  TRACK 66 AUDIO
    TITLE "0:"
    INDEX 01 01:12:19
  TRACK 67 AUDIO
    TITLE "10:cjc113_4123"
    INDEX 01 01:12:24
  TRACK 68 AUDIO
    TITLE "0:"
    INDEX 01 01:15:52
